<?xml version="1.0" standalone="no"?>
<!DOCTYPE svg PUBLIC "-//W3C//DTD SVG 20010904//EN"
 "http://www.w3.org/TR/2001/REC-SVG-20010904/DTD/svg10.dtd">
<svg version="1.0" xmlns="http://www.w3.org/2000/svg"
 width="512.000000pt" height="512.000000pt" viewBox="0 0 512.000000 512.000000"
 preserveAspectRatio="xMidYMid meet">
<metadata>
Created by potrace 1.11, written by Peter Selinger 2001-2013
</metadata>
<g transform="translate(0.000000,512.000000) scale(0.100000,-0.100000)"
fill="#000000" stroke="none">
<path d="M4800 5105 c-7 -8 -16 -12 -21 -9 -5 3 -9 1 -9 -5 0 -5 -10 -13 -22
-17 -13 -3 -30 -12 -38 -19 -8 -6 -35 -23 -60 -36 -25 -13 -47 -26 -50 -29 -3
-3 -25 -16 -50 -29 -25 -13 -52 -30 -61 -38 -9 -7 -19 -10 -22 -6 -4 3 -7 1
-7 -5 0 -7 -7 -12 -15 -12 -8 0 -15 -4 -15 -10 0 -5 -9 -10 -20 -10 -11 0 -20
-4 -20 -8 0 -5 -18 -17 -40 -27 -22 -10 -40 -22 -40 -27 0 -4 -6 -8 -13 -8 -7
0 -29 -11 -50 -25 -20 -14 -37 -22 -37 -18 0 4 -4 3 -8 -3 -8 -12 -150 -94
-163 -94 -5 0 -9 -4 -9 -9 0 -9 -24 -21 -42 -21 -5 0 -17 -9 -28 -20 -11 -11
-27 -20 -35 -20 -8 0 -15 -4 -15 -10 0 -20 -33 -9 -106 35 -174 106 -474 233
-613 260 -9 2 -17 4 -18 5 -2 2 -6 3 -10 4 -270 62 -346 71 -598 71 -171 0
-273 -6 -360 -20 -87 -15 -243 -47 -265 -55 -14 -5 -59 -19 -100 -31 -162 -48
-342 -127 -501 -220 -93 -54 -239 -153 -279 -189 -10 -8 -39 -33 -66 -55 -56
-46 -211 -200 -268 -265 -174 -201 -333 -470 -432 -734 -47 -122 -108 -344
-119 -432 -4 -27 -9 -60 -11 -74 -19 -122 -26 -432 -12 -580 14 -150 54 -344
104 -500 10 -30 18 -57 19 -60 1 -3 5 -14 10 -25 4 -11 19 -49 33 -85 29 -77
124 -268 162 -325 14 -22 32 -52 39 -67 8 -16 18 -28 23 -28 4 0 8 -5 8 -10 0
-12 80 -123 92 -128 4 -2 8 -8 8 -14 0 -29 243 -280 375 -388 44 -36 82 -68
83 -73 2 -4 10 -7 18 -7 8 0 14 -3 14 -8 0 -4 16 -16 35 -26 19 -11 35 -23 35
-28 0 -4 5 -8 11 -8 6 0 30 -13 54 -30 24 -16 48 -30 53 -30 6 0 12 -4 14 -8
5 -14 235 -125 338 -165 150 -56 126 -49 270 -87 152 -40 174 -44 375 -69 138
-16 403 -10 580 14 228 30 514 119 729 227 58 29 212 116 247 140 18 12 38 4
134 -52 28 -17 57 -33 65 -37 8 -3 17 -9 20 -13 3 -3 26 -17 53 -30 26 -14 47
-28 47 -32 0 -5 7 -8 16 -8 9 0 28 -9 43 -19 15 -11 54 -34 86 -52 33 -18 62
-35 65 -38 3 -3 25 -17 50 -30 25 -14 48 -29 52 -35 4 -6 8 -8 8 -4 0 5 44
-19 210 -118 25 -14 45 -25 45 -23 0 2 11 -4 25 -14 20 -14 48 -17 172 -17
l148 0 0 84 c0 82 -1 85 -29 105 -16 12 -31 21 -34 21 -3 0 -51 27 -106 60
-56 33 -106 60 -111 60 -6 0 -10 4 -10 8 0 5 -16 14 -35 22 -19 8 -35 17 -35
22 0 4 -5 8 -11 8 -6 0 -24 9 -40 21 -16 11 -29 17 -29 12 0 -4 -4 -3 -8 3 -7
11 -70 51 -127 79 -16 9 -43 24 -60 35 -16 11 -46 28 -65 37 -19 10 -36 21
-38 26 -2 4 -10 7 -18 7 -8 0 -14 5 -14 11 0 5 -4 7 -10 4 -5 -3 -10 -1 -10 4
0 6 -4 11 -10 11 -8 0 -51 24 -138 77 -22 13 -21 15 71 106 79 78 154 161 227
253 9 10 36 48 60 84 25 36 48 67 53 68 4 2 7 8 7 13 0 5 18 38 40 74 131 215
254 534 294 765 3 19 8 46 11 60 5 26 8 47 22 160 15 126 9 500 -11 596 -2 12
-7 37 -10 55 -3 19 -8 45 -11 59 -3 14 -8 39 -10 55 -12 67 -74 275 -104 350
-67 166 -218 455 -241 463 -6 2 -10 8 -10 12 0 11 -31 57 -95 140 -73 95 -98
123 -219 243 -86 85 -107 110 -95 118 8 5 58 34 111 64 54 31 100 60 103 66 4
5 11 7 16 4 5 -4 9 -1 9 6 0 7 3 10 6 6 3 -3 14 2 25 11 11 9 23 17 27 17 4 0
21 10 38 22 17 12 34 20 38 16 3 -3 6 -1 6 6 0 7 5 9 10 6 6 -3 13 1 16 9 3 9
12 16 20 16 8 0 14 5 14 11 0 5 4 8 9 5 5 -3 19 2 32 12 13 10 31 22 39 25 8
4 31 17 50 29 39 24 91 54 160 93 25 13 68 38 95 55 28 17 57 33 65 37 8 3 27
15 43 25 26 19 27 23 27 104 l0 84 -154 0 c-124 0 -156 -3 -166 -15z m-2123
-450 c34 -3 72 -8 84 -10 13 -3 41 -7 63 -11 22 -3 43 -7 47 -10 3 -2 24 -6
45 -9 21 -2 64 -12 94 -20 30 -9 62 -18 70 -20 140 -36 460 -172 460 -195 0
-6 -10 -15 -22 -20 -13 -6 -36 -19 -53 -29 -16 -10 -33 -16 -37 -14 -5 2 -8
-1 -8 -7 0 -6 -15 -18 -32 -26 -34 -15 -64 -33 -152 -88 -27 -17 -55 -31 -63
-32 -7 -1 -19 -9 -27 -17 -8 -7 -28 -20 -45 -27 -17 -7 -31 -16 -31 -21 0 -5
-5 -9 -10 -9 -13 0 -174 -92 -178 -102 -2 -5 -12 -8 -23 -8 -10 0 -19 -3 -19
-8 0 -4 -21 -18 -47 -32 -27 -13 -51 -29 -55 -35 -4 -5 -8 -6 -8 -2 0 4 -15
-3 -32 -16 -18 -13 -40 -27 -48 -30 -8 -4 -33 -18 -55 -31 -22 -14 -51 -31
-65 -39 -14 -7 -43 -24 -65 -37 -22 -13 -51 -30 -65 -38 -14 -7 -42 -24 -62
-35 -131 -78 -202 -117 -208 -117 -5 0 -10 -4 -12 -9 -1 -5 -10 -11 -18 -13
-8 -2 -17 -5 -20 -8 -8 -8 -128 -80 -133 -80 -6 0 -109 -62 -117 -70 -3 -3
-23 -14 -45 -26 -55 -29 -106 -58 -155 -89 -22 -14 -52 -30 -65 -35 -14 -5
-25 -14 -25 -20 0 -5 -3 -9 -7 -8 -10 3 -197 -103 -201 -114 -2 -4 -8 -8 -14
-8 -6 0 -34 -14 -62 -32 -84 -51 -116 -68 -116 -60 0 4 -4 2 -8 -4 -8 -13
-159 -104 -172 -104 -4 0 -13 -7 -20 -15 -7 -8 -16 -12 -21 -9 -5 3 -9 0 -9
-5 0 -6 -5 -11 -11 -11 -6 0 -17 -7 -26 -15 -8 -8 -19 -13 -24 -10 -5 4 -9 1
-9 -4 0 -6 -7 -11 -15 -11 -8 0 -15 -4 -15 -9 0 -5 -8 -11 -17 -15 -26 -9
-104 -54 -123 -71 -9 -8 -20 -12 -23 -8 -4 3 -7 0 -7 -7 0 -7 -3 -11 -6 -7 -7
7 -31 -14 -30 -25 1 -4 -8 -13 -18 -21 -11 -8 -16 -19 -12 -25 4 -7 3 -12 -2
-12 -10 0 -9 -64 2 -98 9 -29 35 -55 73 -77 15 -8 35 -20 43 -25 8 -5 44 -27
80 -47 36 -21 77 -44 91 -53 32 -19 176 -101 249 -142 30 -17 57 -34 60 -38 3
-3 21 -14 40 -23 19 -10 49 -25 65 -35 104 -61 131 -77 135 -82 6 -5 81 -48
117 -64 13 -6 23 -14 23 -18 0 -5 4 -8 9 -8 13 0 155 -82 159 -92 2 -5 8 -6
13 -2 5 3 9 1 9 -4 0 -6 12 -15 28 -21 27 -10 83 -41 92 -52 3 -3 20 -11 38
-18 17 -8 32 -17 32 -22 0 -5 5 -9 10 -9 6 0 40 -18 76 -40 36 -22 68 -40 71
-40 3 0 17 -8 31 -19 15 -10 50 -31 77 -45 28 -15 66 -37 85 -48 180 -105 226
-133 232 -142 4 -6 8 -7 8 -3 0 4 25 -8 55 -28 31 -19 58 -35 62 -35 3 0 34
-18 69 -40 35 -22 68 -40 74 -40 5 0 10 -3 10 -7 0 -5 10 -13 23 -18 47 -22
112 -60 119 -70 5 -7 8 -7 8 0 0 6 3 6 8 -1 4 -5 27 -22 52 -35 97 -55 125
-72 130 -78 3 -3 11 -7 18 -9 8 -1 26 -11 40 -21 35 -24 341 -201 348 -201 3
0 12 -6 19 -14 12 -11 -3 -21 -93 -64 -125 -59 -235 -103 -318 -128 -32 -10
-63 -19 -69 -21 -36 -11 -226 -54 -255 -58 -19 -2 -44 -6 -55 -9 -32 -6 -167
-19 -205 -20 -35 0 -143 11 -210 20 -19 3 -87 17 -150 30 -119 26 -125 28
-150 36 -8 3 -35 11 -60 19 -228 65 -502 205 -726 370 -144 106 -185 145 -280
264 -35 44 -68 85 -74 92 -67 82 -224 358 -283 498 -74 179 -143 432 -162 600
-4 33 -9 63 -12 67 -5 10 -5 207 0 233 3 11 8 43 11 70 10 75 15 102 37 195
37 161 43 181 89 305 37 100 137 324 150 335 3 3 27 41 53 85 77 129 64 110
175 250 91 114 101 125 166 180 27 22 57 48 67 58 11 9 22 17 25 17 3 0 11 6
19 13 56 53 219 155 370 232 162 81 184 91 331 140 106 36 121 40 173 51 14 3
28 7 31 9 4 2 22 7 41 10 19 3 57 10 84 15 80 15 116 20 190 26 39 3 72 8 74
10 3 3 21 2 40 0 20 -3 64 -8 98 -11z m1253 -522 c47 -37 101 -85 120 -106 19
-22 44 -49 55 -61 11 -12 30 -35 42 -52 12 -16 41 -52 63 -81 22 -29 40 -57
40 -63 0 -5 5 -10 10 -10 6 0 10 -6 10 -14 0 -8 4 -16 8 -18 21 -8 159 -261
206 -378 15 -36 31 -73 36 -82 6 -10 10 -22 10 -27 0 -5 4 -20 9 -33 5 -13 8
-25 8 -28 0 -3 5 -14 11 -26 6 -11 13 -32 16 -45 2 -13 11 -44 19 -69 13 -39
22 -79 42 -180 3 -14 8 -41 11 -60 3 -19 7 -42 9 -50 6 -21 18 -158 18 -200 0
-144 -52 -416 -115 -605 -54 -163 -158 -395 -196 -437 -8 -10 -12 -18 -8 -18
4 0 -4 -15 -18 -33 -15 -19 -26 -37 -26 -40 0 -12 -91 -139 -165 -232 -95
-117 -105 -128 -227 -228 -49 -39 -61 -45 -80 -37 -13 6 -31 13 -40 16 -10 4
-18 11 -18 16 0 5 -4 7 -9 4 -5 -4 -11 -3 -13 2 -4 9 -147 92 -159 92 -5 0 -9
3 -9 8 0 4 -10 12 -23 18 -43 21 -142 77 -169 96 -14 10 -31 18 -37 18 -6 0
-11 5 -11 11 0 5 -4 7 -10 4 -5 -3 -10 -3 -10 2 0 4 -21 19 -47 33 -27 13 -75
41 -109 62 -34 21 -65 38 -69 38 -5 0 -16 6 -24 14 -9 7 -36 24 -61 37 -25 13
-47 26 -50 29 -3 3 -25 16 -50 29 -25 13 -53 31 -64 40 -10 9 -21 16 -25 15
-3 -1 -23 10 -43 22 -21 13 -42 24 -47 24 -5 0 -14 7 -21 15 -7 8 -16 13 -20
10 -5 -3 -11 -1 -15 4 -3 5 -47 33 -98 62 -50 29 -94 56 -97 59 -7 9 -43 24
-52 22 -5 -1 -8 2 -8 6 0 5 -18 17 -40 28 -22 10 -40 22 -40 27 0 4 -6 7 -13
7 -7 0 -28 11 -47 23 -19 13 -55 35 -80 49 -25 14 -61 35 -80 46 -19 11 -52
30 -72 41 -68 37 -83 46 -88 52 -3 3 -30 19 -60 36 -30 16 -110 62 -178 101
-68 40 -127 72 -132 72 -6 0 -10 5 -10 10 0 6 -4 10 -9 10 -4 0 -41 19 -80 43
-86 50 -87 51 -176 102 -39 22 -77 44 -86 50 -9 5 -36 21 -60 34 -24 13 -47
28 -50 33 -3 5 -12 10 -20 12 -8 1 -30 12 -49 24 -19 12 -38 22 -42 22 -20 0
-4 18 35 39 82 43 122 66 127 72 8 10 75 43 83 41 4 -1 7 2 7 8 0 5 7 10 15
10 8 0 15 5 15 10 0 6 4 10 9 10 5 0 49 24 98 52 48 29 96 57 105 63 9 5 41
23 70 39 29 16 56 34 60 40 4 6 8 8 8 4 0 -4 36 15 81 42 44 28 82 50 84 50 3
0 45 25 95 55 50 30 93 55 96 55 3 0 18 8 32 19 26 17 78 47 152 87 19 11 37
22 40 25 3 3 21 14 40 24 19 10 51 28 70 40 19 12 38 22 41 21 4 -1 16 8 28
18 12 11 21 15 21 10 0 -5 4 -4 8 2 4 6 30 24 59 38 28 15 53 31 55 34 2 4 38
25 80 47 43 22 78 43 78 48 0 4 5 7 11 7 6 0 38 16 70 36 32 19 61 34 65 34 4
-1 10 2 13 7 6 9 119 76 196 117 22 12 42 24 45 27 3 3 27 18 53 32 26 15 59
34 72 43 14 9 25 12 25 8 0 -5 5 -1 11 9 6 9 14 15 20 12 5 -4 9 -1 9 4 0 6 7
11 15 11 8 0 15 3 15 8 0 4 17 15 38 25 20 10 51 26 67 37 17 11 42 25 58 31
15 6 27 15 27 20 0 5 6 9 14 9 8 0 22 7 30 16 9 8 16 13 16 9 0 -4 12 3 26 14
15 12 33 21 40 21 8 0 14 4 14 9 0 5 12 14 28 21 41 17 95 48 101 58 5 8 20
14 51 21 3 0 44 -29 90 -66z"/>
<path d="M3937 3983 c-15 -2 -25 -9 -22 -14 4 -5 1 -9 -6 -9 -6 0 -22 -12 -35
-27 -22 -25 -28 -44 -27 -80 1 -7 -3 -13 -8 -13 -6 0 -6 -7 0 -18 6 -10 6 -24
1 -32 -5 -8 -6 -18 -3 -23 10 -16 10 -57 0 -57 -6 0 -5 -5 1 -13 7 -8 7 -18 2
-27 -5 -8 -5 -21 0 -30 5 -9 5 -22 0 -30 -5 -8 -5 -21 0 -30 5 -9 5 -22 0 -30
-5 -8 -5 -21 0 -30 5 -9 5 -22 0 -30 -5 -8 -6 -18 -3 -23 10 -16 10 -57 0 -57
-6 0 -5 -5 1 -13 7 -8 7 -18 2 -27 -5 -8 -5 -21 0 -30 5 -9 5 -22 0 -30 -5 -8
-5 -21 0 -30 5 -9 5 -22 0 -30 -5 -8 -5 -21 0 -30 5 -9 5 -22 0 -30 -5 -8 -6
-18 -3 -23 10 -16 10 -57 0 -57 -6 0 -5 -5 1 -13 7 -8 7 -18 2 -27 -5 -8 -5
-21 0 -30 5 -9 5 -22 0 -30 -5 -8 -5 -21 0 -30 5 -9 5 -22 0 -30 -5 -8 -6 -18
-3 -23 10 -16 10 -57 0 -57 -6 0 -6 -5 -1 -12 11 -16 11 -39 1 -55 -5 -7 -4
-13 0 -13 10 0 10 -66 1 -75 -3 -4 -383 -6 -844 -6 l-839 -1 -39 -21 c-37 -22
-83 -88 -71 -107 3 -5 1 -12 -5 -15 -7 -4 -7 -11 -2 -18 5 -7 12 -24 15 -38 8
-33 34 -62 72 -82 27 -14 127 -15 865 -16 774 0 835 -1 847 -17 8 -11 9 -23 3
-33 -5 -10 -5 -23 0 -31 5 -8 5 -21 0 -30 -5 -9 -5 -22 0 -30 5 -9 5 -19 -2
-27 -6 -8 -6 -13 -1 -13 11 0 11 -29 -1 -48 -4 -6 -3 -12 2 -12 10 0 9 -30 -2
-48 -4 -6 -3 -12 2 -12 9 0 8 -42 -1 -57 -3 -5 -2 -15 3 -23 5 -8 5 -21 0 -30
-5 -9 -5 -22 0 -30 5 -9 5 -19 -2 -27 -6 -8 -6 -13 -1 -13 11 0 11 -29 -1 -48
-4 -6 -3 -12 2 -12 10 0 9 -30 -2 -48 -4 -6 -3 -12 2 -12 9 0 8 -42 -1 -57 -3
-5 -2 -15 3 -23 5 -8 5 -21 0 -30 -5 -9 -5 -22 0 -30 5 -9 5 -19 -2 -27 -6 -8
-6 -13 -1 -13 11 0 11 -29 -1 -48 -4 -6 -3 -12 2 -12 10 0 9 -30 -2 -48 -4 -6
-3 -12 2 -12 9 0 8 -42 -1 -57 -3 -5 -2 -15 3 -23 5 -8 5 -21 0 -30 -5 -9 -5
-22 0 -30 5 -9 5 -19 -2 -27 -6 -7 -7 -13 -2 -13 5 0 9 -19 9 -42 -1 -40 13
-76 40 -104 18 -19 69 -42 88 -39 9 2 17 -1 17 -6 0 -6 6 -7 13 -2 6 4 20 9
31 10 40 7 102 76 101 113 0 8 4 18 10 22 6 5 6 8 -2 8 -11 0 -10 34 2 68 2 6
0 12 -5 12 -8 0 -5 38 5 68 2 6 0 12 -5 12 -8 0 -5 38 5 67 2 7 1 13 -3 13 -9
0 -8 123 2 138 4 7 4 12 -1 12 -10 0 -10 91 1 108 4 6 4 12 -1 12 -4 0 -8 20
-8 45 0 25 3 45 8 45 4 0 4 8 -2 17 -5 10 -5 26 0 40 5 13 5 23 1 23 -4 0 -7
36 -7 80 0 44 4 80 8 80 4 0 4 8 -2 17 -5 10 -5 26 0 40 5 15 5 23 -2 23 -6 0
-6 6 0 18 5 10 6 24 1 31 -4 8 -4 27 0 42 5 16 5 29 0 29 -8 0 -5 39 5 68 2 6
0 12 -4 12 -5 0 -7 13 -5 29 8 49 9 211 2 211 -6 0 -2 41 7 68 2 6 1 12 -3 12
-9 0 -7 204 2 219 4 6 4 11 -1 11 -10 0 -10 91 1 108 4 6 4 12 -1 12 -4 0 -8
20 -8 44 0 25 3 42 7 40 4 -3 4 5 -1 18 -5 13 -5 33 0 46 5 12 5 22 1 22 -4 0
-7 36 -7 80 0 44 4 80 8 80 4 0 4 8 -2 17 -5 10 -5 26 0 40 5 15 5 23 -2 23
-6 0 -6 7 1 20 7 12 7 20 1 20 -9 0 -7 37 4 68 2 6 0 12 -5 12 -8 0 -5 38 5
68 2 6 0 12 -5 12 -8 0 -5 38 5 68 2 6 1 12 -3 12 -4 0 -7 30 -7 66 0 36 -5
68 -11 72 -6 4 -13 15 -17 24 -3 9 -24 26 -46 38 -39 19 -64 22 -124 13z"/>
</g>
</svg>
